<svg width="960" height="300" xmlns="http://www.w3.org/2000/svg" version="1.1" fill="none" stroke-linecap="square" stroke-miterlimit="10">
 <clipPath id="g137a1f80c2b_0_0.0">
  <path d="m0,0l960,0l0,540l-960,0l0,-540z" clip-rule="nonzero" id="svg_1"/>
 </clipPath>

 <g>
  <title>Layer 1</title>
  <g clip-path="url(#g137a1f80c2b_0_0.0)" id="svg_2">
   <path fill="#ffffff" d="m0,-132l960,0l0,540l-960,0l0,-540z" fill-rule="evenodd" id="svg_3"/>
   <path fill="#6fa8dc" d="m659.8097,97.47897l0,0c0,-39.74712 32.22144,-71.96851 71.96851,-71.96851l0,0c19.08728,0 37.3927,7.58237 50.88946,21.07909c13.49671,13.49672 21.07904,31.80219 21.07904,50.88942l0,0c0,39.7471 -32.22137,71.96851 -71.96851,71.96851l0,0c-39.74707,0 -71.9685,-32.22141 -71.9685,-71.96851z" fill-rule="evenodd" id="svg_4"/>
   <path fill="#f6b26b" d="m732.2533,168.97772l0,0c0,-39.7471 32.22137,-71.96851 71.96851,-71.96851l0,0c19.08722,0 37.3927,7.58239 50.8894,21.07909c13.4967,13.49672 21.0791,31.8022 21.0791,50.88942l0,0c0,39.7471 -32.22143,71.96851 -71.9685,71.96851l0,0c-39.74713,0 -71.96851,-32.22141 -71.96851,-71.96851z" fill-rule="evenodd" id="svg_5"/>
   <path fill="#e06666" d="m659.8097,97.00922l143.93701,0l0,143.93701l-143.93701,0l0,-143.93701z" fill-rule="evenodd" id="svg_6"/>
   <path fill="#ffffff" d="m821.00006,121.00793l9.35199,13.12949l-10.60516,14.28906l4.35803,0l6.88305,-9.55722c0.26185,-0.37406 0.69831,-1.05982 1.30927,-2.05731c0.4115,0.66082 0.81055,1.27179 1.19708,1.83288l6.9018,9.78165l4.48895,0l-10.38074,-14.49478l9.63257,-12.92377l-3.94653,0l-5.5177,7.27545c-0.83545,1.08478 -1.55866,2.12592 -2.16968,3.12342c-0.4364,-0.78553 -1.17212,-1.90772 -2.20703,-3.36655l-4.97528,-7.03232l-4.32062,0z" fill-rule="evenodd" id="svg_7"/>
   <path fill="#ffffff" d="m821.00006,189.51974l9.35199,13.12949l-10.60516,14.28906l4.35803,0l6.88305,-9.55722c0.26185,-0.37406 0.69831,-1.05982 1.30927,-2.05731c0.4115,0.66082 0.81055,1.27179 1.19708,1.83288l6.9018,9.78165l4.48895,0l-10.38074,-14.49478l9.63257,-12.92377l-3.94653,0l-5.5177,7.27545c-0.83545,1.08478 -1.55866,2.12592 -2.16968,3.12342c-0.4364,-0.78553 -1.17212,-1.90772 -2.20703,-3.36655l-4.97528,-7.03232l-4.32062,0z" fill-rule="evenodd" id="svg_8"/>
   <path fill="#ffffff" d="m685.3997,121.00793l0,3.23563l15.29987,0c-0.89783,0.92266 -1.84546,2.00744 -2.84302,3.2543l-14.04669,17.5621l0,3.36652l21.67791,0l0,-3.2356l-17.50695,0l1.66467,-1.92642l15.39337,-19.0209l0,-3.23563l-19.63916,0z" fill-rule="evenodd" id="svg_9"/>
   <path fill="#ffffff" d="m759.6097,121.00793l0,3.23563l15.29987,0c-0.89777,0.92266 -1.84546,2.00744 -2.84302,3.2543l-14.04669,17.5621l0,3.36652l21.67791,0l0,-3.2356l-17.50689,0l1.66461,-1.92642l15.39343,-19.0209l0,-3.23563l-19.63922,0z" fill-rule="evenodd" id="svg_10"/>
   <path fill="#ffffff" d="m759.6097,189.51974l0,3.23563l15.29987,0c-0.89777,0.92266 -1.84546,2.00744 -2.84302,3.2543l-14.04669,17.5621l0,3.36652l21.67791,0l0,-3.2356l-17.50689,0l1.66461,-1.92642l15.39343,-19.0209l0,-3.23563l-19.63922,0z" fill-rule="evenodd" id="svg_11"/>
   <path fill="#ffffff" d="m685.3997,189.51974l0,3.23563l15.29987,0c-0.89783,0.92266 -1.84546,2.00744 -2.84302,3.2543l-14.04669,17.5621l0,3.36652l21.67791,0l0,-3.2356l-17.50695,0l1.66467,-1.92642l15.39337,-19.0209l0,-3.23563l-19.63916,0z" fill-rule="evenodd" id="svg_12"/>
   <path fill="#f3f3f3" d="m685.0635,53.58414l9.35199,13.12949l-10.60516,14.28906l4.35803,0l6.88305,-9.55721c0.26185,-0.37407 0.69831,-1.05984 1.30927,-2.05732c0.4115,0.66082 0.81049,1.27179 1.19708,1.83288l6.90174,9.78165l4.48895,0l-10.38068,-14.4948l9.63257,-12.92375l-3.94659,0l-5.51764,7.27545c-0.83545,1.08478 -1.55866,2.12592 -2.16968,3.1234c-0.4364,-0.78552 -1.17212,-1.9077 -2.20709,-3.36653l-4.97522,-7.03232l-4.32062,0z" fill-rule="evenodd" id="svg_13"/>
   <path fill="#f3f3f3" d="m755.9354,53.58493l9.35199,13.12949l-10.60516,14.28906l4.35803,0l6.88305,-9.55721c0.26185,-0.37407 0.69831,-1.05984 1.30927,-2.05732c0.4115,0.66082 0.81055,1.2718 1.19708,1.83288l6.9018,9.78165l4.48895,0l-10.38074,-14.4948l9.63257,-12.92375l-3.94653,0l-5.5177,7.27545c-0.83545,1.08478 -1.55866,2.12592 -2.16968,3.1234c-0.4364,-0.78552 -1.17212,-1.9077 -2.20703,-3.36653l-4.97528,-7.03232l-4.32062,0z" fill-rule="evenodd" id="svg_14"/>
   <path fill="#ffffff" d="m820.80707,240.94623l0,9.5433l-34.48816,0l0,-9.5433l34.48816,0z" fill-rule="evenodd" id="svg_15"/>
   <path fill="#cccccc" d="m110.84262,154.16284c2.68196,0 4.9863,1.16757 6.91299,3.50269c1.93441,2.33514 2.9016,5.84939 2.9016,10.54278c0,4.92456 -0.99031,8.56214 -2.97096,10.91269c-1.97293,2.34283 -4.34663,3.51425 -7.12107,3.51425c-2.72821,0 -5.0518,-1.1329 -6.97079,-3.39865c-1.91899,-2.26578 -2.87849,-5.76846 -2.87849,-10.50809c0,-4.73962 1.02116,-8.35022 3.06345,-10.83178c2.05002,-2.48926 4.40443,-3.73389 7.06327,-3.73389zm0.58957,-4.88989c-2.40452,0 -4.45067,0.47009 -6.13845,1.41031c-1.68779,0.93252 -3.20217,2.33514 -4.54315,4.20788l0,-4.78589l-5.68761,0l0,50.94516l6.24249,0l0,-17.92965c1.06354,1.34097 2.41994,2.45074 4.06919,3.32931c1.65696,0.87854 3.52585,1.31784 5.60669,1.31784c2.8438,0 5.55274,-0.80151 8.1268,-2.40451c2.58178,-1.61069 4.54701,-3.9227 5.89569,-6.936c1.3564,-3.02103 2.03459,-6.41584 2.03459,-10.18442c0,-3.51425 -0.6127,-6.74335 -1.83807,-9.68732c-1.22538,-2.95166 -3.04033,-5.23669 -5.44484,-6.8551c-2.40452,-1.61841 -5.17896,-2.42761 -8.32333,-2.42761z" fill-rule="evenodd" id="svg_16"/>
   <path fill="#cccccc" d="m131.02669,150.10526l13.97626,36.89969c-0.25434,0.67047 -0.43929,1.17914 -0.55489,1.52594c-0.87858,2.47385 -1.51439,4.02289 -1.90744,4.64713c-0.53177,0.83233 -1.21381,1.47967 -2.04614,1.94207c-0.83234,0.46241 -1.94211,0.69361 -3.32933,0.69361c-1.01731,0 -2.20799,-0.18494 -3.5721,-0.55487l0,0l0.6936,5.86093c1.47971,0.50866 2.8207,0.76297 4.02295,0.76297c1.98836,0 3.69925,-0.48166 5.13272,-1.44501c1.43346,-0.95563 2.70508,-2.46228 3.81485,-4.51996c0.83234,-1.52594 1.99991,-4.31192 3.50273,-8.35794l14.01095,-37.45456l-6.2425,0l-7.87248,21.46701c-0.99417,2.72818 -1.84962,5.52573 -2.56636,8.39261c-0.78609,-2.98248 -1.67622,-5.82626 -2.67039,-8.53131l-7.6644,-21.32831l-6.72803,0z" fill-rule="evenodd" id="svg_17"/>
   <path fill="#cccccc" d="m169.93825,136.09448l0,50.84109l6.24249,0l0,-50.84109l-6.24249,0z" fill-rule="evenodd" id="svg_18"/>
   <path fill="#cccccc" d="m200.80391,154.44028c3.07501,0 5.64522,1.17529 7.71065,3.52582c2.07312,2.34283 3.10968,5.79159 3.10968,10.34625c0,4.83209 -1.02886,8.42728 -3.08657,10.78552c-2.0577,2.35825 -4.63563,3.53739 -7.73376,3.53739c-3.12125,0 -5.71072,-1.17142 -7.76843,-3.51426c-2.05771,-2.35055 -3.08657,-5.88406 -3.08657,-10.60058c0,-4.71649 1.02886,-8.24231 3.08657,-10.57742c2.05771,-2.33515 4.64718,-3.50272 7.76843,-3.50272zm0,-5.16733c-4.5547,0 -8.4158,1.36408 -11.5833,4.09226c-3.79173,3.28305 -5.6876,8.3348 -5.6876,15.15521c0,6.21933 1.5876,10.98205 4.7628,14.28824c3.18289,3.30615 7.35226,4.95926 12.5081,4.95926c3.21373,0 6.17699,-0.75141 8.88978,-2.25421c2.72049,-1.50281 4.78977,-3.6106 6.20781,-6.32337c1.42576,-2.72046 2.13863,-6.4505 2.13863,-11.19012c0,-5.84937 -1.60686,-10.431 -4.82059,-13.74488c-3.21373,-3.32159 -7.35226,-4.98239 -12.41563,-4.98239z" fill-rule="evenodd" id="svg_19"/>
   <path fill="#cccccc" d="m221.57755,150.10526l14.01094,36.83032l5.82633,0l13.94157,-36.83032l-6.41589,0l-8.18461,22.47275c-0.99418,2.72818 -1.7687,5.06329 -2.3236,7.0054c-0.71672,-2.56635 -1.50283,-5.04019 -2.35828,-7.42157l-7.90715,-22.05658l-6.58931,0z" fill-rule="evenodd" id="svg_20"/>
   <path fill="#cccccc" d="m276.06067,154.4056c3.16748,0 5.74539,1.20224 7.73376,3.60672c1.29474,1.54907 2.08082,3.87262 2.35828,6.97073l-20.56558,0c0.2081,-3.21371 1.28705,-5.78003 3.23688,-7.699c1.95752,-1.91898 4.36972,-2.87845 7.23666,-2.87845zm-0.06937,-5.13266c-5.08648,0 -9.22503,1.71088 -12.41562,5.13266c-3.19061,3.42178 -4.78591,8.23074 -4.78591,14.42694c0,5.9881 1.57601,10.64294 4.72811,13.96454c3.15976,3.31387 7.43317,4.97082 12.82023,4.97082c4.27728,0 7.79156,-1.0404 10.54287,-3.12121c2.75135,-2.08081 4.63565,-5.00549 5.65293,-8.77408l-6.45057,-0.79764c-0.94793,2.63568 -2.2311,4.55466 -3.84954,5.7569c-1.61841,1.20224 -3.57209,1.80338 -5.861,1.80338c-3.07501,0 -5.64138,-1.07511 -7.69909,-3.22525c-2.05771,-2.15018 -3.20218,-5.24827 -3.43338,-9.29429l27.46698,0c0.02313,-0.73983 0.0347,-1.29473 0.0347,-1.66464c0,-6.0806 -1.56064,-10.79709 -4.68189,-14.1495c-3.12125,-3.35242 -7.14419,-5.02863 -12.06882,-5.02863z" fill-rule="evenodd" id="svg_21"/>
   <path fill="#cccccc" d="m332.20844,149.27295c-1.91898,0 -3.71851,0.25046 -5.39859,0.7514c-1.67239,0.49323 -2.99408,1.09821 -3.96515,1.81491c-1.29474,0.92481 -2.31973,2.08854 -3.07501,3.49115c-0.74756,1.3949 -1.12134,2.91312 -1.12134,4.55466c0,1.80338 0.45471,3.45261 1.36411,4.94769c0.91711,1.4874 2.25808,2.65497 4.02295,3.50272c1.77255,0.84003 4.94775,1.83804 9.52557,2.99405c3.39871,0.85544 5.52576,1.56061 6.38122,2.11548c1.22538,0.8092 1.83808,1.91897 1.83808,3.32928c0,1.57218 -0.69361,2.94397 -2.08084,4.11539c-1.38721,1.1637 -3.51428,1.74557 -6.38123,1.74557c-2.84378,0 -5.05948,-0.65893 -6.64709,-1.97677c-1.5799,-1.31784 -2.54325,-3.21369 -2.89005,-5.68753l-6.17312,0.97104c0.6936,3.90728 2.29275,6.8551 4.79745,8.84341c2.51242,1.98834 6.16159,2.98251 10.94751,2.98251c2.89005,0 5.47952,-0.50094 7.76843,-1.5028c2.28891,-1.00959 4.03836,-2.43146 5.24832,-4.26566c1.21769,-1.84192 1.82651,-3.80325 1.82651,-5.88406c0,-2.12705 -0.4971,-3.90732 -1.49127,-5.34076c-0.99417,-1.43344 -2.36597,-2.52393 -4.11542,-3.27149c-1.74173,-0.75524 -4.82058,-1.72244 -9.23657,-2.90158c-3.05188,-0.8323 -4.88995,-1.36407 -5.51422,-1.59527c-1.08664,-0.43927 -1.88431,-0.99417 -2.39294,-1.66464c-0.50864,-0.64737 -0.76297,-1.37565 -0.76297,-2.18485c0,-1.27161 0.61267,-2.38138 1.83807,-3.32932c1.22537,-0.9479 3.27151,-1.42187 6.13846,-1.42187c2.42761,0 4.30423,0.53177 5.62979,1.59528c1.33328,1.06353 2.13864,2.54321 2.41608,4.43905l6.10376,-0.8323c-0.39304,-2.38138 -1.10978,-4.28107 -2.15018,-5.6991c-1.04041,-1.42575 -2.655,-2.55478 -4.84372,-3.38712c-2.18103,-0.8323 -4.71655,-1.24847 -7.6066,-1.24847z" fill-rule="evenodd" id="svg_22"/>
   <path fill="#cccccc" d="m355.65247,136.09448l0,7.1788l6.24249,0l0,-7.1788l-6.24249,0zm0,14.01077l0,36.83032l6.24249,0l0,-36.83032l-6.24249,0z" fill-rule="evenodd" id="svg_23"/>
   <path fill="#cccccc" d="m388.14813,149.27295c-2.45074,0 -4.63562,0.55103 -6.55463,1.65308c-1.91897,1.09436 -3.45648,2.54321 -4.61248,4.34658l0,-5.16735l-5.58359,0l0,36.83032l6.24249,0l0,-19.10877c0,-3.35241 0.33527,-5.91873 1.00574,-7.69897c0.6705,-1.78024 1.74945,-3.13278 3.23684,-4.05759c1.49512,-0.9248 3.12125,-1.38721 4.87842,-1.38721c2.31201,0 3.97669,0.69361 4.99399,2.08081c1.0173,1.38721 1.52594,3.46802 1.52594,6.24244l0,23.92929l6.24249,0l0,-21.39765c0,-3.79168 0.85547,-6.54684 2.56635,-8.26544c1.71091,-1.72629 3.86111,-2.58945 6.45059,-2.58945c1.43347,0 2.68198,0.33524 3.74548,1.00574c1.06354,0.67047 1.79569,1.55673 2.19645,2.65881c0.40847,1.09433 0.6127,2.89002 0.6127,5.38697l0,23.20102l6.20782,0l0,-25.28183c0,-4.20786 -0.98263,-7.32135 -2.94784,-9.34052c-1.96524,-2.02685 -4.77436,-3.04028 -8.42737,-3.04028c-4.67032,0 -8.46207,2.15018 -11.37522,6.4505c-0.71673,-2.03458 -1.94982,-3.61829 -3.69928,-4.75119c-1.74172,-1.13287 -3.97668,-1.69931 -6.70489,-1.69931z" fill-rule="evenodd" id="svg_24"/>
   <path fill="#cccccc" d="m430.4237,150.10526l0,22.81955c0,2.65881 0.12717,4.60089 0.38147,5.82626c0.36993,1.82648 1.00961,3.37168 1.91901,4.63559c0.91711,1.2562 2.31588,2.30045 4.19635,3.13275c1.88815,0.83234 3.91888,1.24851 6.09219,1.24851c4.92465,0 8.82043,-2.08081 11.68735,-6.24243l0,5.41009l5.58355,0l0,-36.83032l-6.24249,0l0,19.733c0,3.14435 -0.34296,5.54499 -1.02887,7.20194c-0.67819,1.64923 -1.83804,2.9555 -3.47958,3.91885c-1.64157,0.95563 -3.39871,1.43344 -5.27146,1.43344c-1.87274,0 -3.44494,-0.46625 -4.71655,-1.39877c-1.27161,-0.94022 -2.10394,-2.23108 -2.49701,-3.87262c-0.2543,-1.13287 -0.38147,-3.32929 -0.38147,-6.58923l0,-20.42661l-6.24249,0z" fill-rule="evenodd" id="svg_25"/>
   <path fill="#cccccc" d="m469.92484,136.09448l0,50.84109l6.24249,0l0,-50.84109l-6.24249,0z" fill-rule="evenodd" id="svg_26"/>
   <path fill="#cccccc" d="m509.3566,168.45108l0,2.28888c0,2.75128 -0.33527,4.83209 -1.00574,6.24243c-0.8786,1.82648 -2.25424,3.26764 -4.12698,4.32346c-1.87277,1.04809 -4.01138,1.57217 -6.41592,1.57217c-2.42762,0 -4.27341,-0.5549 -5.53733,-1.66467c-1.25619,-1.10974 -1.88431,-2.49695 -1.88431,-4.16162c0,-1.08664 0.28901,-2.07309 0.86704,-2.95935c0.578,-0.89399 1.39877,-1.57218 2.46231,-2.03458c1.06354,-0.4624 2.87848,-0.87857 5.44485,-1.24847c4.53159,-0.64737 7.93027,-1.43345 10.19608,-2.35825zm-7.94186,-19.17813c-3.16748,0 -5.95349,0.43542 -8.35801,1.30627c-2.40451,0.86316 -4.24258,2.1001 -5.51419,3.71079c-1.27163,1.603 -2.18487,3.71078 -2.73977,6.32333l6.10379,0.83234c0.67047,-2.61258 1.70318,-4.43137 3.09811,-5.45633c1.40262,-1.03272 3.57208,-1.54907 6.50839,-1.54907c3.14435,0 5.51419,0.70517 7.1095,2.11551c1.17914,1.0404 1.76871,2.83221 1.76871,5.37542c0,0.2312 -0.01157,0.77451 -0.03467,1.62995c-2.38141,0.83233 -6.09222,1.54904 -11.13248,2.15017c-2.47387,0.30057 -4.32348,0.61267 -5.54886,0.93637c-1.66467,0.46241 -3.16366,1.14444 -4.49691,2.04612c-1.32557,0.9017 -2.40067,2.10009 -3.22528,3.59518c-0.81693,1.4874 -1.22541,3.13278 -1.22541,4.93613c0,3.07498 1.08667,5.60278 3.25998,7.5834c2.17331,1.9729 5.28299,2.95938 9.32907,2.95938c2.45075,0 4.7435,-0.4046 6.8783,-1.2138c2.14249,-0.80921 4.36975,-2.19641 6.68179,-4.16162c0.18497,1.734 0.60111,3.24838 1.24851,4.54309l6.51989,0c-0.78607,-1.41031 -1.31396,-2.8823 -1.58374,-4.41593c-0.26202,-1.54135 -0.393,-5.21359 -0.393,-11.01672l0,-8.32324c0,-2.77442 -0.10407,-4.69339 -0.31214,-5.7569c-0.36993,-1.71091 -1.01733,-3.12506 -1.94213,-4.24255c-0.92481,-1.12519 -2.36982,-2.05768 -4.33506,-2.79752c-1.96521,-0.73987 -4.52002,-1.10977 -7.66439,-1.10977z" fill-rule="evenodd" id="svg_27"/>
   <path fill="#cccccc" d="m532.6966,137.23892l-6.20782,3.74548l0,9.12085l-4.57782,0l0,4.85523l4.57782,0l0,21.18957c0,3.74546 0.25433,6.20389 0.76293,7.37531c0.50867,1.16372 1.38727,2.10394 2.63575,2.82065c1.24847,0.71673 3.00567,1.0751 5.27142,1.0751c1.38727,0 2.95941,-0.18497 4.71655,-0.5549l-0.90167,-5.51413c-1.13287,0.16183 -2.04614,0.24277 -2.73975,0.24277c-0.9248,0 -1.63769,-0.1503 -2.13867,-0.45084c-0.49322,-0.30057 -0.85156,-0.70517 -1.07507,-1.21381c-0.21582,-0.50866 -0.32367,-1.6531 -0.32367,-3.43335l0,-21.53637l6.27716,0l0,-4.85523l-6.27716,0l0,-12.86633z" fill-rule="evenodd" id="svg_28"/>
   <path fill="#cccccc" d="m560.02484,154.44028c3.07501,0 5.6452,1.17529 7.71063,3.52582c2.07312,2.34283 3.10968,5.79159 3.10968,10.34625c0,4.83209 -1.02887,8.42728 -3.08655,10.78552c-2.05773,2.35825 -4.63562,3.53739 -7.73376,3.53739c-3.12128,0 -5.71075,-1.17142 -7.76843,-3.51426c-2.05774,-2.35055 -3.08655,-5.88406 -3.08655,-10.60058c0,-4.71649 1.02881,-8.24231 3.08655,-10.57742c2.05768,-2.33515 4.64715,-3.50272 7.76843,-3.50272zm0,-5.16733c-4.55469,0 -8.41583,1.36408 -11.58331,4.09226c-3.79175,3.28305 -5.68762,8.3348 -5.68762,15.15521c0,6.21933 1.58764,10.98205 4.76281,14.28824c3.18292,3.30615 7.3523,4.95926 12.50812,4.95926c3.21375,0 6.177,-0.75141 8.88977,-2.25421c2.72052,-1.50281 4.7898,-3.6106 6.20783,-6.32337c1.42578,-2.72046 2.13861,-6.4505 2.13861,-11.19012c0,-5.84937 -1.60688,-10.431 -4.82056,-13.74488c-3.21375,-3.32159 -7.3523,-4.98239 -12.41565,-4.98239z" fill-rule="evenodd" id="svg_29"/>
   <path fill="#cccccc" d="m598.10406,149.27295c-1.4566,0 -2.7937,0.41617 -4.01141,1.24847c-1.20996,0.83234 -2.53168,2.55478 -3.96509,5.16736l0,-5.58352l-5.61829,0l0,36.83032l6.2425,0l0,-19.28217c0,-2.63568 0.3468,-5.06329 1.0404,-7.2828c0.46246,-1.45658 1.23694,-2.59333 2.32361,-3.41022c1.08667,-0.82462 2.31207,-1.23694 3.67615,-1.23694c1.52594,0 3.05188,0.45084 4.57782,1.35254l2.1502,-5.7916c-2.17334,-1.34097 -4.31195,-2.01144 -6.41589,-2.01144z" fill-rule="evenodd" id="svg_30"/>
   <path stroke="#cccccc" stroke-linejoin="round" d="m110.84262,154.16284c2.68196,0 4.9863,1.16757 6.91299,3.50269c1.93441,2.33514 2.9016,5.84939 2.9016,10.54278c0,4.92456 -0.99031,8.56214 -2.97096,10.91269c-1.97293,2.34283 -4.34663,3.51425 -7.12107,3.51425c-2.72821,0 -5.0518,-1.1329 -6.97079,-3.39865c-1.91899,-2.26578 -2.87849,-5.76846 -2.87849,-10.50809c0,-4.73962 1.02116,-8.35022 3.06345,-10.83178c2.05002,-2.48926 4.40443,-3.73389 7.06327,-3.73389zm0.58957,-4.88989c-2.40452,0 -4.45067,0.47009 -6.13845,1.41031c-1.68779,0.93252 -3.20217,2.33514 -4.54315,4.20788l0,-4.78589l-5.68761,0l0,50.94516l6.24249,0l0,-17.92965c1.06354,1.34097 2.41994,2.45074 4.06919,3.32931c1.65696,0.87854 3.52585,1.31784 5.60669,1.31784c2.8438,0 5.55274,-0.80151 8.1268,-2.40451c2.58178,-1.61069 4.54701,-3.9227 5.89569,-6.936c1.3564,-3.02103 2.03459,-6.41584 2.03459,-10.18442c0,-3.51425 -0.6127,-6.74335 -1.83807,-9.68732c-1.22538,-2.95166 -3.04033,-5.23669 -5.44484,-6.8551c-2.40452,-1.61841 -5.17896,-2.42761 -8.32333,-2.42761z" fill-rule="evenodd" id="svg_31"/>
   <path stroke="#cccccc" stroke-linejoin="round" d="m131.02669,150.10526l13.97626,36.89969c-0.25434,0.67047 -0.43929,1.17914 -0.55489,1.52594c-0.87858,2.47385 -1.51439,4.02289 -1.90744,4.64713c-0.53177,0.83233 -1.21381,1.47967 -2.04614,1.94207c-0.83234,0.46241 -1.94211,0.69361 -3.32933,0.69361c-1.01731,0 -2.20799,-0.18494 -3.5721,-0.55487l0,0l0.6936,5.86093c1.47971,0.50866 2.8207,0.76297 4.02295,0.76297c1.98836,0 3.69925,-0.48166 5.13272,-1.44501c1.43346,-0.95563 2.70508,-2.46228 3.81485,-4.51996c0.83234,-1.52594 1.99991,-4.31192 3.50273,-8.35794l14.01095,-37.45456l-6.2425,0l-7.87248,21.46701c-0.99417,2.72818 -1.84962,5.52573 -2.56636,8.39261c-0.78609,-2.98248 -1.67622,-5.82626 -2.67039,-8.53131l-7.6644,-21.32831l-6.72803,0z" fill-rule="evenodd" id="svg_32"/>
   <path stroke="#cccccc" stroke-linejoin="round" d="m169.93825,136.09448l0,50.84109l6.24249,0l0,-50.84109l-6.24249,0z" fill-rule="evenodd" id="svg_33"/>
   <path stroke="#cccccc" stroke-linejoin="round" d="m200.80391,154.44028c3.07501,0 5.64522,1.17529 7.71065,3.52582c2.07312,2.34283 3.10968,5.79159 3.10968,10.34625c0,4.83209 -1.02886,8.42728 -3.08657,10.78552c-2.0577,2.35825 -4.63563,3.53739 -7.73376,3.53739c-3.12125,0 -5.71072,-1.17142 -7.76843,-3.51426c-2.05771,-2.35055 -3.08657,-5.88406 -3.08657,-10.60058c0,-4.71649 1.02886,-8.24231 3.08657,-10.57742c2.05771,-2.33515 4.64718,-3.50272 7.76843,-3.50272zm0,-5.16733c-4.5547,0 -8.4158,1.36408 -11.5833,4.09226c-3.79173,3.28305 -5.6876,8.3348 -5.6876,15.15521c0,6.21933 1.5876,10.98205 4.7628,14.28824c3.18289,3.30615 7.35226,4.95926 12.5081,4.95926c3.21373,0 6.17699,-0.75141 8.88978,-2.25421c2.72049,-1.50281 4.78977,-3.6106 6.20781,-6.32337c1.42576,-2.72046 2.13863,-6.4505 2.13863,-11.19012c0,-5.84937 -1.60686,-10.431 -4.82059,-13.74488c-3.21373,-3.32159 -7.35226,-4.98239 -12.41563,-4.98239z" fill-rule="evenodd" id="svg_34"/>
   <path stroke="#cccccc" stroke-linejoin="round" d="m221.57755,150.10526l14.01094,36.83032l5.82633,0l13.94157,-36.83032l-6.41589,0l-8.18461,22.47275c-0.99418,2.72818 -1.7687,5.06329 -2.3236,7.0054c-0.71672,-2.56635 -1.50283,-5.04019 -2.35828,-7.42157l-7.90715,-22.05658l-6.58931,0z" fill-rule="evenodd" id="svg_35"/>
   <path stroke="#cccccc" stroke-linejoin="round" d="m276.06067,154.4056c3.16748,0 5.74539,1.20224 7.73376,3.60672c1.29474,1.54907 2.08082,3.87262 2.35828,6.97073l-20.56558,0c0.2081,-3.21371 1.28705,-5.78003 3.23688,-7.699c1.95752,-1.91898 4.36972,-2.87845 7.23666,-2.87845zm-0.06937,-5.13266c-5.08648,0 -9.22503,1.71088 -12.41562,5.13266c-3.19061,3.42178 -4.78591,8.23074 -4.78591,14.42694c0,5.9881 1.57601,10.64294 4.72811,13.96454c3.15976,3.31387 7.43317,4.97082 12.82023,4.97082c4.27728,0 7.79156,-1.0404 10.54287,-3.12121c2.75135,-2.08081 4.63565,-5.00549 5.65293,-8.77408l-6.45057,-0.79764c-0.94793,2.63568 -2.2311,4.55466 -3.84954,5.7569c-1.61841,1.20224 -3.57209,1.80338 -5.861,1.80338c-3.07501,0 -5.64138,-1.07511 -7.69909,-3.22525c-2.05771,-2.15018 -3.20218,-5.24827 -3.43338,-9.29429l27.46698,0c0.02313,-0.73983 0.0347,-1.29473 0.0347,-1.66464c0,-6.0806 -1.56064,-10.79709 -4.68189,-14.1495c-3.12125,-3.35242 -7.14419,-5.02863 -12.06882,-5.02863z" fill-rule="evenodd" id="svg_36"/>
   <path stroke="#cccccc" stroke-linejoin="round" d="m332.20844,149.27295c-1.91898,0 -3.71851,0.25046 -5.39859,0.7514c-1.67239,0.49323 -2.99408,1.09821 -3.96515,1.81491c-1.29474,0.92481 -2.31973,2.08854 -3.07501,3.49115c-0.74756,1.3949 -1.12134,2.91312 -1.12134,4.55466c0,1.80338 0.45471,3.45261 1.36411,4.94769c0.91711,1.4874 2.25808,2.65497 4.02295,3.50272c1.77255,0.84003 4.94775,1.83804 9.52557,2.99405c3.39871,0.85544 5.52576,1.56061 6.38122,2.11548c1.22538,0.8092 1.83808,1.91897 1.83808,3.32928c0,1.57218 -0.69361,2.94397 -2.08084,4.11539c-1.38721,1.1637 -3.51428,1.74557 -6.38123,1.74557c-2.84378,0 -5.05948,-0.65893 -6.64709,-1.97677c-1.5799,-1.31784 -2.54325,-3.21369 -2.89005,-5.68753l-6.17312,0.97104c0.6936,3.90728 2.29275,6.8551 4.79745,8.84341c2.51242,1.98834 6.16159,2.98251 10.94751,2.98251c2.89005,0 5.47952,-0.50094 7.76843,-1.5028c2.28891,-1.00959 4.03836,-2.43146 5.24832,-4.26566c1.21769,-1.84192 1.82651,-3.80325 1.82651,-5.88406c0,-2.12705 -0.4971,-3.90732 -1.49127,-5.34076c-0.99417,-1.43344 -2.36597,-2.52393 -4.11542,-3.27149c-1.74173,-0.75524 -4.82058,-1.72244 -9.23657,-2.90158c-3.05188,-0.8323 -4.88995,-1.36407 -5.51422,-1.59527c-1.08664,-0.43927 -1.88431,-0.99417 -2.39294,-1.66464c-0.50864,-0.64737 -0.76297,-1.37565 -0.76297,-2.18485c0,-1.27161 0.61267,-2.38138 1.83807,-3.32932c1.22537,-0.9479 3.27151,-1.42187 6.13846,-1.42187c2.42761,0 4.30423,0.53177 5.62979,1.59528c1.33328,1.06353 2.13864,2.54321 2.41608,4.43905l6.10376,-0.8323c-0.39304,-2.38138 -1.10978,-4.28107 -2.15018,-5.6991c-1.04041,-1.42575 -2.655,-2.55478 -4.84372,-3.38712c-2.18103,-0.8323 -4.71655,-1.24847 -7.6066,-1.24847z" fill-rule="evenodd" id="svg_37"/>
   <path stroke="#cccccc" stroke-linejoin="round" d="m355.65247,136.09448l0,7.1788l6.24249,0l0,-7.1788l-6.24249,0zm0,14.01077l0,36.83032l6.24249,0l0,-36.83032l-6.24249,0z" fill-rule="evenodd" id="svg_38"/>
   <path stroke="#cccccc" stroke-linejoin="round" d="m388.14813,149.27295c-2.45074,0 -4.63562,0.55103 -6.55463,1.65308c-1.91897,1.09436 -3.45648,2.54321 -4.61248,4.34658l0,-5.16735l-5.58359,0l0,36.83032l6.24249,0l0,-19.10877c0,-3.35241 0.33527,-5.91873 1.00574,-7.69897c0.6705,-1.78024 1.74945,-3.13278 3.23684,-4.05759c1.49512,-0.9248 3.12125,-1.38721 4.87842,-1.38721c2.31201,0 3.97669,0.69361 4.99399,2.08081c1.0173,1.38721 1.52594,3.46802 1.52594,6.24244l0,23.92929l6.24249,0l0,-21.39765c0,-3.79168 0.85547,-6.54684 2.56635,-8.26544c1.71091,-1.72629 3.86111,-2.58945 6.45059,-2.58945c1.43347,0 2.68198,0.33524 3.74548,1.00574c1.06354,0.67047 1.79569,1.55673 2.19645,2.65881c0.40847,1.09433 0.6127,2.89002 0.6127,5.38697l0,23.20102l6.20782,0l0,-25.28183c0,-4.20786 -0.98263,-7.32135 -2.94784,-9.34052c-1.96524,-2.02685 -4.77436,-3.04028 -8.42737,-3.04028c-4.67032,0 -8.46207,2.15018 -11.37522,6.4505c-0.71673,-2.03458 -1.94982,-3.61829 -3.69928,-4.75119c-1.74172,-1.13287 -3.97668,-1.69931 -6.70489,-1.69931z" fill-rule="evenodd" id="svg_39"/>
   <path stroke="#cccccc" stroke-linejoin="round" d="m430.4237,150.10526l0,22.81955c0,2.65881 0.12717,4.60089 0.38147,5.82626c0.36993,1.82648 1.00961,3.37168 1.91901,4.63559c0.91711,1.2562 2.31588,2.30045 4.19635,3.13275c1.88815,0.83234 3.91888,1.24851 6.09219,1.24851c4.92465,0 8.82043,-2.08081 11.68735,-6.24243l0,5.41009l5.58355,0l0,-36.83032l-6.24249,0l0,19.733c0,3.14435 -0.34296,5.54499 -1.02887,7.20194c-0.67819,1.64923 -1.83804,2.9555 -3.47958,3.91885c-1.64157,0.95563 -3.39871,1.43344 -5.27146,1.43344c-1.87274,0 -3.44494,-0.46625 -4.71655,-1.39877c-1.27161,-0.94022 -2.10394,-2.23108 -2.49701,-3.87262c-0.2543,-1.13287 -0.38147,-3.32929 -0.38147,-6.58923l0,-20.42661l-6.24249,0z" fill-rule="evenodd" id="svg_40"/>
   <path stroke="#cccccc" stroke-linejoin="round" d="m469.92484,136.09448l0,50.84109l6.24249,0l0,-50.84109l-6.24249,0z" fill-rule="evenodd" id="svg_41"/>
   <path stroke="#cccccc" stroke-linejoin="round" d="m509.3566,168.45108l0,2.28888c0,2.75128 -0.33527,4.83209 -1.00574,6.24243c-0.8786,1.82648 -2.25424,3.26764 -4.12698,4.32346c-1.87277,1.04809 -4.01138,1.57217 -6.41592,1.57217c-2.42762,0 -4.27341,-0.5549 -5.53733,-1.66467c-1.25619,-1.10974 -1.88431,-2.49695 -1.88431,-4.16162c0,-1.08664 0.28901,-2.07309 0.86704,-2.95935c0.578,-0.89399 1.39877,-1.57218 2.46231,-2.03458c1.06354,-0.4624 2.87848,-0.87857 5.44485,-1.24847c4.53159,-0.64737 7.93027,-1.43345 10.19608,-2.35825zm-7.94186,-19.17813c-3.16748,0 -5.95349,0.43542 -8.35801,1.30627c-2.40451,0.86316 -4.24258,2.1001 -5.51419,3.71079c-1.27163,1.603 -2.18487,3.71078 -2.73977,6.32333l6.10379,0.83234c0.67047,-2.61258 1.70318,-4.43137 3.09811,-5.45633c1.40262,-1.03272 3.57208,-1.54907 6.50839,-1.54907c3.14435,0 5.51419,0.70517 7.1095,2.11551c1.17914,1.0404 1.76871,2.83221 1.76871,5.37542c0,0.2312 -0.01157,0.77451 -0.03467,1.62995c-2.38141,0.83233 -6.09222,1.54904 -11.13248,2.15017c-2.47387,0.30057 -4.32348,0.61267 -5.54886,0.93637c-1.66467,0.46241 -3.16366,1.14444 -4.49691,2.04612c-1.32557,0.9017 -2.40067,2.10009 -3.22528,3.59518c-0.81693,1.4874 -1.22541,3.13278 -1.22541,4.93613c0,3.07498 1.08667,5.60278 3.25998,7.5834c2.17331,1.9729 5.28299,2.95938 9.32907,2.95938c2.45075,0 4.7435,-0.4046 6.8783,-1.2138c2.14249,-0.80921 4.36975,-2.19641 6.68179,-4.16162c0.18497,1.734 0.60111,3.24838 1.24851,4.54309l6.51989,0c-0.78607,-1.41031 -1.31396,-2.8823 -1.58374,-4.41593c-0.26202,-1.54135 -0.393,-5.21359 -0.393,-11.01672l0,-8.32324c0,-2.77442 -0.10407,-4.69339 -0.31214,-5.7569c-0.36993,-1.71091 -1.01733,-3.12506 -1.94213,-4.24255c-0.92481,-1.12519 -2.36982,-2.05768 -4.33506,-2.79752c-1.96521,-0.73987 -4.52002,-1.10977 -7.66439,-1.10977z" fill-rule="evenodd" id="svg_42"/>
   <path stroke="#cccccc" stroke-linejoin="round" d="m532.6966,137.23892l-6.20782,3.74548l0,9.12085l-4.57782,0l0,4.85523l4.57782,0l0,21.18957c0,3.74546 0.25433,6.20389 0.76293,7.37531c0.50867,1.16372 1.38727,2.10394 2.63575,2.82065c1.24847,0.71673 3.00567,1.0751 5.27142,1.0751c1.38727,0 2.95941,-0.18497 4.71655,-0.5549l-0.90167,-5.51413c-1.13287,0.16183 -2.04614,0.24277 -2.73975,0.24277c-0.9248,0 -1.63769,-0.1503 -2.13867,-0.45084c-0.49322,-0.30057 -0.85156,-0.70517 -1.07507,-1.21381c-0.21582,-0.50866 -0.32367,-1.6531 -0.32367,-3.43335l0,-21.53637l6.27716,0l0,-4.85523l-6.27716,0l0,-12.86633z" fill-rule="evenodd" id="svg_43"/>
   <path stroke="#cccccc" stroke-linejoin="round" d="m560.02484,154.44028c3.07501,0 5.6452,1.17529 7.71063,3.52582c2.07312,2.34283 3.10968,5.79159 3.10968,10.34625c0,4.83209 -1.02887,8.42728 -3.08655,10.78552c-2.05773,2.35825 -4.63562,3.53739 -7.73376,3.53739c-3.12128,0 -5.71075,-1.17142 -7.76843,-3.51426c-2.05774,-2.35055 -3.08655,-5.88406 -3.08655,-10.60058c0,-4.71649 1.02881,-8.24231 3.08655,-10.57742c2.05768,-2.33515 4.64715,-3.50272 7.76843,-3.50272zm0,-5.16733c-4.55469,0 -8.41583,1.36408 -11.58331,4.09226c-3.79175,3.28305 -5.68762,8.3348 -5.68762,15.15521c0,6.21933 1.58764,10.98205 4.76281,14.28824c3.18292,3.30615 7.3523,4.95926 12.50812,4.95926c3.21375,0 6.177,-0.75141 8.88977,-2.25421c2.72052,-1.50281 4.7898,-3.6106 6.20783,-6.32337c1.42578,-2.72046 2.13861,-6.4505 2.13861,-11.19012c0,-5.84937 -1.60688,-10.431 -4.82056,-13.74488c-3.21375,-3.32159 -7.3523,-4.98239 -12.41565,-4.98239z" fill-rule="evenodd" id="svg_44"/>
   <path stroke="#cccccc" stroke-linejoin="round" d="m598.10406,149.27295c-1.4566,0 -2.7937,0.41617 -4.01141,1.24847c-1.20996,0.83234 -2.53168,2.55478 -3.96509,5.16736l0,-5.58352l-5.61829,0l0,36.83032l6.2425,0l0,-19.28217c0,-2.63568 0.3468,-5.06329 1.0404,-7.2828c0.46246,-1.45658 1.23694,-2.59333 2.32361,-3.41022c1.08667,-0.82462 2.31207,-1.23694 3.67615,-1.23694c1.52594,0 3.05188,0.45084 4.57782,1.35254l2.1502,-5.7916c-2.17334,-1.34097 -4.31195,-2.01144 -6.41589,-2.01144z" fill-rule="evenodd" id="svg_45"/>
  </g>
 </g>
</svg>